<mxfile host="drawio-plugin" modified="2022-12-12T04:43:46.908Z" agent="5.0 (Windows NT 6.2; Win64; x64) AppleWebKit/537.36 (KHTML, like Gecko) Chrome/98.0.4758.102 Safari/537.36" etag="Tfeh76iRRiy1QpvdXETl" version="20.5.3" type="embed"><diagram id="wa2WG6ByGEoDA2BkyAu0" name="Страница 1"><mxGraphModel dx="1059" dy="1883" grid="1" gridSize="10" guides="1" tooltips="1" connect="1" arrows="1" fold="1" page="1" pageScale="1" pageWidth="827" pageHeight="1169" math="0" shadow="0"><root><mxCell id="0"/><mxCell id="1" parent="0"/><mxCell id="r4BZqJtc3CwaEnqxj4rT-1" value="DIEliemnt" style="rounded=0;whiteSpace=wrap;html=1;" parent="1" vertex="1"><mxGeometry x="40" y="240" width="120" height="60" as="geometry"/></mxCell><mxCell id="r4BZqJtc3CwaEnqxj4rT-3" value="Dependency" style="rounded=0;whiteSpace=wrap;html=1;" parent="1" vertex="1"><mxGeometry x="360" y="220" width="120" height="60" as="geometry"/></mxCell><mxCell id="XWx39Fv768jMYYqtCLmS-12" style="edgeStyle=orthogonalEdgeStyle;rounded=0;orthogonalLoop=1;jettySize=auto;html=1;exitX=0.5;exitY=1;exitDx=0;exitDy=0;" parent="1" source="r4BZqJtc3CwaEnqxj4rT-5" target="r4BZqJtc3CwaEnqxj4rT-7" edge="1"><mxGeometry relative="1" as="geometry"/></mxCell><mxCell id="r4BZqJtc3CwaEnqxj4rT-5" value="DependencyProviderGenerator" style="rounded=0;whiteSpace=wrap;html=1;" parent="1" vertex="1"><mxGeometry x="490" y="340" width="180" height="60" as="geometry"/></mxCell><mxCell id="r4BZqJtc3CwaEnqxj4rT-7" value="DependencyProvider" style="rounded=0;whiteSpace=wrap;html=1;" parent="1" vertex="1"><mxGeometry x="520" y="525" width="120" height="60" as="geometry"/></mxCell><mxCell id="XWx39Fv768jMYYqtCLmS-3" style="edgeStyle=orthogonalEdgeStyle;rounded=0;orthogonalLoop=1;jettySize=auto;html=1;exitX=0;exitY=0.5;exitDx=0;exitDy=0;entryX=1;entryY=0.5;entryDx=0;entryDy=0;" parent="1" source="r4BZqJtc3CwaEnqxj4rT-9" target="r4BZqJtc3CwaEnqxj4rT-1" edge="1"><mxGeometry relative="1" as="geometry"/></mxCell><mxCell id="XWx39Fv768jMYYqtCLmS-5" style="edgeStyle=orthogonalEdgeStyle;rounded=0;orthogonalLoop=1;jettySize=auto;html=1;exitX=0.5;exitY=1;exitDx=0;exitDy=0;entryX=0.5;entryY=0;entryDx=0;entryDy=0;" parent="1" source="r4BZqJtc3CwaEnqxj4rT-9" target="r4BZqJtc3CwaEnqxj4rT-3" edge="1"><mxGeometry relative="1" as="geometry"/></mxCell><mxCell id="XWx39Fv768jMYYqtCLmS-8" style="edgeStyle=orthogonalEdgeStyle;rounded=0;orthogonalLoop=1;jettySize=auto;html=1;exitX=1;exitY=0.5;exitDx=0;exitDy=0;" parent="1" source="r4BZqJtc3CwaEnqxj4rT-9" target="r4BZqJtc3CwaEnqxj4rT-5" edge="1"><mxGeometry relative="1" as="geometry"/></mxCell><mxCell id="4" style="edgeStyle=orthogonalEdgeStyle;rounded=0;orthogonalLoop=1;jettySize=auto;html=1;exitX=0;exitY=0.5;exitDx=0;exitDy=0;" edge="1" parent="1" source="r4BZqJtc3CwaEnqxj4rT-9" target="2"><mxGeometry relative="1" as="geometry"><Array as="points"><mxPoint x="270" y="100"/><mxPoint x="270" y="390"/></Array></mxGeometry></mxCell><mxCell id="9" style="edgeStyle=orthogonalEdgeStyle;rounded=0;orthogonalLoop=1;jettySize=auto;html=1;exitX=0.5;exitY=0;exitDx=0;exitDy=0;fontFamily=Helvetica;fontColor=#000000;" edge="1" parent="1" source="r4BZqJtc3CwaEnqxj4rT-9" target="8"><mxGeometry relative="1" as="geometry"/></mxCell><mxCell id="11" style="edgeStyle=orthogonalEdgeStyle;rounded=0;orthogonalLoop=1;jettySize=auto;html=1;exitX=1;exitY=0.5;exitDx=0;exitDy=0;fontFamily=Helvetica;fontColor=#000000;" edge="1" parent="1" source="r4BZqJtc3CwaEnqxj4rT-9" target="10"><mxGeometry relative="1" as="geometry"/></mxCell><mxCell id="r4BZqJtc3CwaEnqxj4rT-9" value="&lt;p style=&quot;&quot;&gt;&lt;span style=&quot;background-color: rgb(255, 255, 255);&quot;&gt;DependencyContainerAnnotationsProcessor&lt;/span&gt;&lt;/p&gt;" style="rounded=0;whiteSpace=wrap;html=1;" parent="1" vertex="1"><mxGeometry x="290" y="70" width="260" height="60" as="geometry"/></mxCell><mxCell id="r4BZqJtc3CwaEnqxj4rT-12" value="аннотация к конструктору" style="text;html=1;strokeColor=none;fillColor=none;align=center;verticalAlign=middle;whiteSpace=wrap;rounded=0;" parent="1" vertex="1"><mxGeometry x="40" y="210" width="120" height="30" as="geometry"/></mxCell><mxCell id="XWx39Fv768jMYYqtCLmS-4" value="смотрит на эту аннотации у всех классов" style="text;html=1;strokeColor=none;fillColor=none;align=center;verticalAlign=middle;whiteSpace=wrap;rounded=0;" parent="1" vertex="1"><mxGeometry x="160" y="90" width="60" height="30" as="geometry"/></mxCell><mxCell id="XWx39Fv768jMYYqtCLmS-6" value="1. строит в себе объекты dependency" style="text;html=1;strokeColor=none;fillColor=none;align=center;verticalAlign=middle;whiteSpace=wrap;rounded=0;" parent="1" vertex="1"><mxGeometry x="470" y="160" width="60" height="30" as="geometry"/></mxCell><mxCell id="XWx39Fv768jMYYqtCLmS-10" value="2. использует генератор" style="text;html=1;strokeColor=none;fillColor=none;align=center;verticalAlign=middle;whiteSpace=wrap;rounded=0;" parent="1" vertex="1"><mxGeometry x="580" y="180" width="60" height="30" as="geometry"/></mxCell><mxCell id="XWx39Fv768jMYYqtCLmS-11" value="выстраивает имплементации для dependecy provider" style="text;html=1;strokeColor=none;fillColor=none;align=center;verticalAlign=middle;whiteSpace=wrap;rounded=0;" parent="1" vertex="1"><mxGeometry x="600" y="440" width="60" height="30" as="geometry"/></mxCell><mxCell id="2" value="DIGraph" style="rounded=0;whiteSpace=wrap;html=1;" vertex="1" parent="1"><mxGeometry x="40" y="360" width="120" height="60" as="geometry"/></mxCell><mxCell id="3" value="аннотация к графу" style="text;html=1;strokeColor=none;fillColor=none;align=center;verticalAlign=middle;whiteSpace=wrap;rounded=0;" vertex="1" parent="1"><mxGeometry x="40" y="330" width="120" height="30" as="geometry"/></mxCell><mxCell id="5" value="смотрит на эту аннотацию у всех интерфейсов" style="text;html=1;strokeColor=none;fillColor=none;align=center;verticalAlign=middle;whiteSpace=wrap;rounded=0;" vertex="1" parent="1"><mxGeometry x="190" y="320" width="60" height="30" as="geometry"/></mxCell><mxCell id="8" value="&lt;p style=&quot;&quot;&gt;Graph&lt;/p&gt;" style="rounded=0;whiteSpace=wrap;html=1;labelBackgroundColor=#FFFFFF;fontFamily=Helvetica;fontColor=#000000;" vertex="1" parent="1"><mxGeometry x="350" y="-130" width="140" height="60" as="geometry"/></mxCell><mxCell id="15" style="edgeStyle=orthogonalEdgeStyle;rounded=0;orthogonalLoop=1;jettySize=auto;html=1;exitX=0.5;exitY=0;exitDx=0;exitDy=0;entryX=0.5;entryY=1;entryDx=0;entryDy=0;fontFamily=Helvetica;fontColor=#000000;" edge="1" parent="1" source="10" target="14"><mxGeometry relative="1" as="geometry"/></mxCell><mxCell id="10" value="&lt;p style=&quot;&quot;&gt;GraphGenerator&lt;/p&gt;" style="rounded=0;whiteSpace=wrap;html=1;labelBackgroundColor=#FFFFFF;fontFamily=Helvetica;fontColor=#000000;" vertex="1" parent="1"><mxGeometry x="520" y="-30" width="100" height="40" as="geometry"/></mxCell><mxCell id="12" value="&lt;span style=&quot;color: rgb(0, 0, 0); font-family: Helvetica; font-size: 12px; font-style: normal; font-variant-ligatures: normal; font-variant-caps: normal; font-weight: 400; letter-spacing: normal; orphans: 2; text-align: center; text-indent: 0px; text-transform: none; widows: 2; word-spacing: 0px; -webkit-text-stroke-width: 0px; background-color: rgb(248, 249, 250); text-decoration-thickness: initial; text-decoration-style: initial; text-decoration-color: initial; float: none; display: inline !important;&quot;&gt;выстраивает имплементации для graph&lt;/span&gt;" style="text;whiteSpace=wrap;html=1;fontFamily=Helvetica;fontColor=#000000;" vertex="1" parent="1"><mxGeometry x="600" y="-130" width="80" height="40" as="geometry"/></mxCell><mxCell id="14" value="Name_Graph" style="rounded=0;whiteSpace=wrap;html=1;labelBackgroundColor=#FFFFFF;fontFamily=Helvetica;fontColor=#000000;" vertex="1" parent="1"><mxGeometry x="510" y="-210" width="120" height="60" as="geometry"/></mxCell><mxCell id="16" value="3. строит в себе объекты Graph" style="text;html=1;strokeColor=none;fillColor=none;align=center;verticalAlign=middle;whiteSpace=wrap;rounded=0;" vertex="1" parent="1"><mxGeometry x="430" y="-25" width="60" height="30" as="geometry"/></mxCell><mxCell id="17" value="4. использует генератор" style="text;html=1;strokeColor=none;fillColor=none;align=center;verticalAlign=middle;whiteSpace=wrap;rounded=0;" vertex="1" parent="1"><mxGeometry x="580" y="30" width="60" height="30" as="geometry"/></mxCell></root></mxGraphModel></diagram></mxfile>